<?xml version="1.0" encoding="UTF-8"?>
<svg width="94px" height="35px" viewBox="0 0 94 35" version="1.1" xmlns="http://www.w3.org/2000/svg" xmlns:xlink="http://www.w3.org/1999/xlink">
    <title>inFlow_logo_wht</title>
    <defs>
        <linearGradient x1="78.5701388%" y1="0.70426009%" x2="29.9350051%" y2="84.3823991%" id="linearGradient-1">
            <stop stop-color="#F7C855" offset="0%"></stop>
            <stop stop-color="#F5C150" offset="27.42%"></stop>
            <stop stop-color="#EFAE43" offset="66.97%"></stop>
            <stop stop-color="#EDA63D" offset="80.15%"></stop>
        </linearGradient>
    </defs>
    <g id="Designs" stroke="none" stroke-width="1" fill="none" fill-rule="evenodd">
        <g id="Design---Home-Pre-Subscription-3-col-2" transform="translate(-530.000000, -1503.000000)" fill-rule="nonzero">
            <g id="Footer" transform="translate(0.000000, 1441.000000)">
                <g id="inFlow_logo_wht" transform="translate(530.000000, 62.000000)">
                    <path d="M26.0442,14.301 L26.0442,1.386 C26.0442,1.386 26.0442,0.063 24.7212,0.063 L11.7684,0.063 C11.7684,0.063 10.4454,0.063 10.4454,1.386 L10.4454,13.0284 C10.4454,14.4144 9.3492,15.5484 7.9758,15.6114 L1.4364,15.6114 C1.4364,15.6114 0.0378,15.6114 0.0378,17.01 L0.0378,24.5952 C0.0378,24.5952 0.0378,25.9938 1.4364,25.9938 L7.8372,25.9938 C9.2736,25.9938 10.4328,27.153 10.4328,28.5894 L10.4328,32.319 C10.4328,32.319 10.4328,33.7806 11.8944,33.7806 L14.1624,33.7806 C14.1624,33.7806 15.624,33.7806 15.624,32.319 L15.624,28.5894 C15.624,27.1782 16.758,26.0316 18.1566,25.9938 L19.4292,25.9938 C19.4292,25.9938 20.8278,25.9938 20.8278,24.5952 L20.8278,22.2012 C20.8278,22.2012 20.8278,20.8026 19.4292,20.8026 L17.0226,20.8026 C17.0226,20.8026 15.624,20.8026 15.624,22.2012 L15.624,23.4612 C15.5862,24.8598 14.4396,25.9938 13.0284,25.9938 C11.592,25.9938 10.4328,24.8346 10.4328,23.3982 L10.4328,23.3982 L10.4328,18.207 C10.4328,16.7706 11.592,15.6114 13.0284,15.6114 L24.7086,15.6114 C24.7212,15.624 26.0442,15.624 26.0442,14.301" id="Path" fill="url(#linearGradient-1)"></path>
                    <g id="Group" transform="translate(24.066000, 15.498000)" fill="#FFFFFF">
                        <path d="M0.0126,17.577 L0.0126,5.9976 C0.0126,5.5818 0.2772,5.292 0.7182,5.292 L1.3104,5.292 C1.7262,5.292 1.9908,5.5566 1.9908,5.9976 L1.9908,17.577 C1.9908,18.018 1.7262,18.2826 1.3104,18.2826 L0.7182,18.2826 C0.2646,18.2826 0.0126,18.0306 0.0126,17.577 Z" id="Path"></path>
                        <path d="M5.2164,17.577 L5.2164,5.9976 C5.2164,5.5818 5.481,5.292 5.8968,5.292 L6.5016,5.292 C6.9426,5.292 7.2072,5.5566 7.2072,5.9976 L7.2072,8.064 C7.9128,6.0102 9.8154,5.0148 11.7306,5.0148 C14.49,5.0148 16.884,6.6276 16.884,10.9242 L16.884,17.5896 C16.884,18.0306 16.6194,18.2952 16.1784,18.2952 L15.5862,18.2952 C15.1452,18.2952 14.8806,18.0306 14.8806,17.5896 L14.8806,10.9242 C14.8806,7.7742 13.2426,6.7914 11.6046,6.7914 C10.1682,6.7914 7.2324,7.812 7.2072,11.9952 L7.2072,17.5896 C7.2072,18.0306 6.9426,18.2952 6.5016,18.2952 L5.8968,18.2952 C5.481,18.2826 5.2164,18.0306 5.2164,17.577 Z" id="Path"></path>
                        <path d="M29.5722,0.7686 L29.5722,1.0836 C29.5722,1.4994 29.3328,1.764 28.8918,1.764 L22.1634,1.764 L22.1634,8.505 L28.35,8.505 C28.791,8.505 29.0556,8.7696 29.0556,9.2106 L29.0556,9.5256 C29.0556,9.9666 28.791,10.2312 28.35,10.2312 L22.1634,10.2312 L22.1634,17.5896 C22.1634,18.0306 21.8988,18.2952 21.4578,18.2952 L20.8026,18.2952 C20.3616,18.2952 20.097,18.0306 20.097,17.5896 L20.097,0.7686 C20.097,0.3276 20.4498,0.063 20.8908,0.063 L28.98,0.063 C29.4336,0.0756 29.5722,0.3276 29.5722,0.7686 Z" id="Path"></path>
                        <path d="M31.8024,17.577 L31.8906,0.7308 C31.8906,0.2898 32.1552,0.0252 32.5962,0.0252 L33.201,0.0252 C33.6168,0.0252 33.8814,0.2898 33.8814,0.7308 L33.7932,17.577 C33.7932,18.018 33.5286,18.2826 33.1128,18.2826 L32.508,18.2826 C32.0544,18.2826 31.8024,18.0306 31.8024,17.577 Z" id="Path"></path>
                        <path d="M36.0612,11.8062 C36.0612,8.0892 39.1356,5.0148 42.8526,5.0148 C46.62,5.0148 49.6944,8.1144 49.6944,11.8062 C49.6944,15.5484 46.62,18.5724 42.8526,18.5724 C39.123,18.5724 36.0612,15.5736 36.0612,11.8062 Z M47.691,11.8314 C47.691,9.072 45.5364,6.7788 42.8526,6.7788 C40.2192,6.7788 38.0646,9.072 38.0646,11.8314 C38.0646,14.5908 40.2192,16.7958 42.8526,16.7958 C45.5364,16.7958 47.691,14.5656 47.691,11.8314 Z" id="Shape"></path>
                        <path d="M54.7344,17.7156 L50.3622,6.111 C50.1858,5.6196 50.4126,5.3046 50.9292,5.3046 L51.5214,5.3046 C51.9372,5.3046 52.2018,5.4558 52.3278,5.8716 L55.944,15.624 L59.0436,6.3126 C59.1696,5.9472 59.4342,5.7456 59.8248,5.7456 L60.3414,5.7456 C60.732,5.7456 61.0218,5.9598 61.1226,6.3126 L64.2474,15.624 L67.8636,5.8716 C67.9896,5.4558 68.2542,5.3046 68.6448,5.3046 L69.2748,5.3046 C69.7914,5.3046 70.0308,5.6196 69.8418,6.111 L65.4696,17.7156 C65.3436,18.1314 65.0538,18.2826 64.6632,18.2826 L63.9576,18.2826 C63.567,18.2826 63.2772,18.1062 63.1764,17.7156 L60.0768,8.5554 L57.0024,17.7156 C56.8764,18.1062 56.6118,18.2826 56.2212,18.2826 L55.4904,18.2826 C55.125,18.2826 54.8604,18.1062 54.7344,17.7156 Z" id="Path"></path>
                    </g>
                </g>
            </g>
        </g>
    </g>
</svg>